<?xml version="1.0" encoding="utf-8"?>
<!-- Generator: Adobe Illustrator 25.0.0, SVG Export Plug-In . SVG Version: 6.00 Build 0)  -->
<svg version="1.1" id="actual_svg" xmlns="http://www.w3.org/2000/svg" xmlns:xlink="http://www.w3.org/1999/xlink" x="0px" y="0px"
	 viewBox="0 0 512 512" style="enable-background:new 0 0 512 512;" xml:space="preserve">
<style type="text/css">
	.st0{fill:none;stroke:#000000;stroke-miterlimit:10;}
</style>
<g id="XMLID_5_">
	<g>
		<polygon points="457.5,228.6 385.4,228.6 385.4,443.9 297.9,443.9 296.6,317.6 216.2,317.6 216.2,443.9 126.6,443.9 127.2,228.6 
			54.5,228.6 256.3,68.2 325.2,123.1 325.2,68.3 385.2,68.1 385.4,171.1 		"/>
	</g>
	<g>
		<polygon class="st0" points="256.3,68.2 325.2,123.1 325.2,68.3 385.2,68.1 385.4,171.1 457.5,228.6 385.4,228.6 385.4,443.9 
			297.9,443.9 296.6,317.6 216.2,317.6 216.2,443.9 126.6,443.9 127.2,228.6 54.5,228.6 		"/>
	</g>
</g>
</svg>
